<svg xmlns="http://www.w3.org/2000/svg" xmlns:xlink="http://www.w3.org/1999/xlink" width="25" height="24" viewBox="0 0 25 24">
  <defs>
    <polygon id="logo-a" points="0 .467 24.748 .467 24.748 19.01 0 19.01"/>
  </defs>
  <g fill="none" fill-rule="evenodd">
    <path fill="#272727" d="M8.96190789,13.1057237 C8.58230263,13.4767763 8.58230263,14.0807237 8.96190789,14.4504605 L13.7901974,19.16625 C14.1665132,19.5340132 14.7724342,19.5340132 15.14875,19.16625 C15.5290132,18.7951974 15.5290132,18.1925658 15.14875,17.8215132 L10.3204605,13.1057237 C9.94414474,12.7379605 9.33822368,12.7379605 8.96190789,13.1057237"/>
    <path fill="#272727" d="M6.99052632 13.3042763L9.11552632 11.2286184C9.19842105 11.1476974 9.33592105 11.1476974 9.41947368 11.2292763L12.3517105 14.0930921 12.5615789 14.2983553 12.7457895 14.0694079C13.3721053 13.2891447 13.3122368 12.1720395 12.5905263 11.4674342L10.7346053 9.65493421C9.95236842 8.89046053 8.68592105 8.89046053 7.90171053 9.65493421L5.42934211 12.0700658C4.6425 12.8391447 4.6425 14.0865132 5.42868421 14.8555921L7.28526316 16.6680921C7.98986842 17.35625 9.09710526 17.4273026 9.89052632 16.8516447L10.1457895 16.6661184 6.99052632 13.5838816C6.91092105 13.5055921 6.91092105 13.3825658 6.99052632 13.3042763M16.8530921 15.6307895C16.1353289 14.9294737 15.0017763 14.8715789 14.2076974 15.4794737L13.9629605 15.6669737 17.1155921 18.7465789C17.1958553 18.8242105 17.1958553 18.9478947 17.11625 19.0248684L14.9905921 21.1011842C14.9070395 21.1827632 14.7701974 21.1827632 14.6866447 21.1011842L13.2221711 19.6709211 11.7570395 18.24 11.54125 18.0294737 11.3590132 18.2696053C10.76625 19.0498684 10.8399342 20.14 11.5471711 20.8307895L13.4030921 22.6432895C14.1853289 23.4084211 15.4524342 23.4084211 16.2359868 22.6432895L18.7090132 20.2281579C19.4958553 19.4597368 19.4958553 18.2117105 18.7090132 17.4432895L16.8530921 15.6307895z"/>
    <g transform="translate(0 .19)">
      <mask id="logo-b" fill="#fff">
        <use xlink:href="#logo-a"/>
      </mask>
      <path fill="#272727" d="M19.6876316,7.35993421 C19.6428947,7.35072368 19.5573684,7.33625 19.4494737,7.31914474 C19.4751316,3.52901316 16.6007895,0.467171053 12.5277632,0.467171053 C8.93631579,0.467171053 6.95210526,2.40598684 5.81065789,5.94085526 C2.52710526,5.97440789 0.000131578947,9.16322368 0.000131578947,12.4000658 C0.000131578947,15.3132237 1.23039474,17.3882237 3.97710526,18.8842763 C4.47907895,19.1573026 5.10736842,18.9717763 5.38039474,18.4698026 C5.65342105,17.9684868 5.46789474,17.3401974 4.96657895,17.0671711 C2.88565789,15.9342763 2.06921053,14.5566447 2.06921053,12.4000658 C2.06921053,10.1573026 3.87907895,7.93032895 5.98171053,8.01190789 C6.04092105,8.01388158 6.08631579,8.01388158 6.28631579,8.01190789 C6.43368421,8.01059211 6.51986842,8.01059211 6.51986842,8.01059211 C7.00802632,8.04019737 7.45013158,7.72309211 7.57907895,7.25138158 C8.46065789,4.03032895 9.80868421,2.53625 12.5277632,2.53625 C15.6863158,2.53625 17.7593421,5.03756579 17.3231579,8.06519737 C17.2297368,8.71322368 17.7547368,9.28427632 18.4080263,9.24546053 C18.3323684,9.25006579 18.2659211,9.24480263 18.2988158,9.24611842 C18.3396053,9.25072368 18.3396053,9.25072368 18.4073684,9.25927632 C18.4994737,9.27177632 18.6231579,9.28888158 18.7626316,9.30927632 C18.9843421,9.34217105 19.2619737,9.38493421 19.2665789,9.38559211 C21.2310526,9.79414474 22.6790789,11.4744079 22.6790789,12.8382237 C22.6790789,14.5763816 22.4882895,15.1191447 21.2369737,16.3724342 C20.8336842,16.7763816 20.8336842,17.4316447 21.2382895,17.8355921 C21.6422368,18.2388816 22.2975,18.2388816 22.7014474,17.8342763 C24.3718421,16.16125 24.7481579,15.0901974 24.7481579,12.8382237 C24.7481579,10.4684868 22.5882895,7.96322368 19.6876316,7.35993421" mask="url(#logo-b)"/>
    </g>
  </g>
</svg>
