<svg xmlns="http://www.w3.org/2000/svg" width="95" height="14" viewBox="0 0 95 14">
  <g fill="none" fill-rule="evenodd" transform="translate(-1 -1)">
    <text fill="#fff" font-family="Roboto-Medium, Roboto" font-size="14" font-weight="400" opacity=".9" transform="translate(60)">
      <tspan x=".46" y="13">12:30</tspan>
    </text>
    <g transform="translate(41)">
      <polygon points="0 0 16 0 16 16 0 16"/>
      <polygon fill="#fff" points="9 1.875 9 1 6 1 6 1.875 3 1.875 3 15 12 15 12 1.875"/>
    </g>
    <g transform="translate(21)">
      <polygon points="0 0 16 0 16 16 0 16"/>
      <polygon fill="#fff" points="0 15 14 15 14 1"/>
    </g>
    <polygon points="2 0 18 0 18 16 2 16"/>
    <path fill="#fff" d="M0.977372085,4.01593123 C3.48821908,2.12256382 6.61301513,1 10,1 C13.3869849,1 16.5117809,2.12256382 19.0226279,4.01593123 L10,15 L0.977372085,4.01593123 Z"/>
  </g>
</svg>
